<svg width="90" height="90" viewBox="0 0 165 164" fill="none" xmlns="http://www.w3.org/2000/svg">
<g opacity="0.1">
<path d="M150.698 34.8044C144.593 22.2767 127.009 12.0267 106.554 17.9944C97.4448 21.1469 89.3764 26.7412 83.2298 34.1667C78.416 40.4676 74.605 47.4748 71.932 54.94L101.816 68.3333L76.442 92.2956L86.9198 104.778L79.7676 110.882L63.3676 91.6578L84.9609 71.1122L60.1787 60.1333C62.3657 51.2936 65.8996 42.8429 70.6565 35.0778C72.1163 32.6396 73.7292 30.2964 75.4853 28.0622H75.7587C70.707 23.4151 64.6383 20.0141 58.0376 18.1311C37.6742 12.1178 20.1353 22.2767 14.0309 34.8044C5.46644 52.3433 9.01978 72.0689 24.5998 93.4344C36.8087 110.153 54.2564 127.1 79.5853 146.78C80.3858 147.404 81.3719 147.743 82.387 147.743C83.4021 147.743 84.3882 147.404 85.1887 146.78C110.472 127.146 127.965 110.336 140.174 93.4344C155.709 72.0689 159.262 52.3433 150.698 34.8044V34.8044Z" fill="black"/>
</g>
</svg>
