<svg width="164" height="164" viewBox="0 0 164 164" fill="none" xmlns="http://www.w3.org/2000/svg">
<circle cx="82" cy="82" r="75" fill="#EEF9F0"/>
<path d="M111.726 53.5526C112.208 53.061 112.783 52.6705 113.417 52.4039C114.052 52.1373 114.733 52 115.421 52C116.11 52 116.791 52.1373 117.426 52.4039C118.06 52.6705 118.635 53.061 119.117 53.5526C121.136 55.5927 121.164 58.8894 119.188 60.9649L77.4459 110.31C76.972 110.83 76.3969 111.248 75.7557 111.539C75.1146 111.829 74.4209 111.986 73.7172 111.999C73.0135 112.012 72.3144 111.882 71.6628 111.616C71.0112 111.349 70.4208 110.953 69.9277 110.451L44.5283 84.7124C43.5487 83.7134 43 82.3701 43 80.971C43 79.5719 43.5487 78.2285 44.5283 77.2295C45.0101 76.738 45.5851 76.3475 46.2196 76.0809C46.8542 75.8143 47.5356 75.677 48.2238 75.677C48.9121 75.677 49.5935 75.8143 50.2281 76.0809C50.8626 76.3475 51.4376 76.738 51.9194 77.2295L73.4644 99.064L111.585 53.7079C111.629 53.6533 111.676 53.6015 111.726 53.5526Z" fill="#54BF6C"/>
</svg>
